<?xml version="1.0" encoding="UTF-8" standalone="no"?>
<!DOCTYPE svg PUBLIC "-//W3C//DTD SVG 1.1//EN" "http://www.w3.org/Graphics/SVG/1.1/DTD/svg11.dtd">
<svg width="100%" height="100%" viewBox="0 0 750 631" version="1.1" xmlns="http://www.w3.org/2000/svg" xmlns:xlink="http://www.w3.org/1999/xlink" xml:space="preserve" xmlns:serif="http://www.serif.com/" style="fill-rule:evenodd;clip-rule:evenodd;stroke-linejoin:round;stroke-miterlimit:1.5;">
    <g>
        <path d="M0.004,520.923L5.003,520.965C4.98,523.712 5.009,526.382 5.088,528.977C5.177,531.863 5.334,534.665 5.554,537.385L0.571,537.79C0.343,534.988 0.182,532.103 0.09,529.13C0.009,526.472 -0.02,523.736 0.004,520.923ZM2.952,554.965L7.854,553.978C9.019,559.764 10.508,565.091 12.26,569.994L7.552,571.677C5.724,566.56 4.168,561.002 2.952,554.965ZM14.73,587.447L19.08,584.981C21.949,590.043 25.122,594.48 28.466,598.368L24.675,601.628C21.133,597.51 17.769,592.809 14.73,587.447ZM37.244,613.543L40.297,609.583C45.001,613.209 49.728,616.023 54.16,618.203L51.952,622.689C47.251,620.376 42.235,617.39 37.244,613.543ZM68.168,628.775L69.445,623.941C72.726,624.807 75.164,625.214 76.347,625.381C78,624.914 79.734,624.185 81.553,623.244L83.85,627.685C81.326,628.991 78.928,629.934 76.67,630.46C76.67,630.46 73.382,630.152 68.168,628.775ZM96.62,619.057L93.494,615.155C97.103,612.263 100.883,608.922 104.81,605.242L108.229,608.89C104.201,612.665 100.322,616.091 96.62,619.057ZM119.273,598.107L115.724,594.586C119.214,591.067 122.79,587.38 126.436,583.585L130.042,587.049C126.377,590.864 122.782,594.57 119.273,598.107ZM140.709,575.893L137.093,572.439C140.62,568.747 144.197,565.011 147.81,561.281L151.401,564.76C147.796,568.482 144.228,572.209 140.709,575.893ZM162.226,553.757L158.694,550.218C162.393,546.527 166.118,542.892 169.858,539.36L173.29,542.996C169.584,546.496 165.892,550.099 162.226,553.757ZM184.715,532.618L181.435,528.844C185.493,525.317 189.554,521.971 193.603,518.863L196.647,522.83C192.676,525.877 188.694,529.16 184.715,532.618ZM209.279,513.968L206.612,509.738C211.394,506.724 216.141,504.136 220.825,502.064L222.847,506.637C218.374,508.615 213.844,511.09 209.279,513.968ZM237.533,502.01L236.671,497.085C239.552,496.581 242.4,496.32 245.21,496.32L253.322,496.32L253.322,501.32L245.21,501.32C242.684,501.32 240.123,501.557 237.533,502.01ZM269.547,501.32L269.547,496.32L285.771,496.32L285.771,501.32L269.547,501.32ZM301.995,501.32L301.995,496.32L318.22,496.32L318.22,501.32L301.995,501.32ZM334.444,501.32L334.444,496.32L350.668,496.32L350.668,501.32L334.444,501.32ZM366.893,501.32L366.893,496.32L383.117,496.32L383.117,501.32L366.893,501.32ZM399.342,501.32L399.342,496.32L415.566,496.32L415.566,501.32L399.342,501.32ZM431.79,501.32L431.79,496.32L448.015,496.32L448.015,501.32L431.79,501.32ZM464.239,501.32L464.239,496.32L480.463,496.32L480.463,501.32L464.239,501.32ZM496.688,501.32L496.688,496.32L504.8,496.32C507.61,496.32 510.458,496.581 513.339,497.085L512.477,502.01C509.887,501.557 507.326,501.32 504.8,501.32L496.688,501.32ZM527.164,506.637L529.186,502.064C533.87,504.135 538.616,506.724 543.398,509.738L540.731,513.968C536.166,511.089 531.636,508.614 527.164,506.637ZM553.362,522.831L556.406,518.865C560.455,521.972 564.516,525.32 568.574,528.847L565.293,532.62C561.314,529.162 557.333,525.879 553.362,522.831ZM576.717,543L580.15,539.365C583.889,542.896 587.614,546.533 591.313,550.224L587.78,553.763C584.115,550.104 580.423,546.5 576.717,543ZM598.604,564.768L602.195,561.289C605.809,565.019 609.385,568.755 612.911,572.448L609.295,575.901C605.777,572.217 602.209,568.489 598.604,564.768ZM619.962,587.058L623.567,583.594C627.214,587.389 630.789,591.077 634.28,594.595L630.73,598.117C627.221,594.58 623.627,590.873 619.962,587.058ZM641.775,608.899L645.194,605.25C649.121,608.93 652.901,612.27 656.511,615.161L653.386,619.064C649.683,616.099 645.804,612.674 641.775,608.899ZM666.158,627.687L668.454,623.246C670.273,624.186 672.009,624.915 673.665,625.381C674.844,625.214 677.282,624.808 680.565,623.941L681.841,628.775C676.628,630.152 673.34,630.46 673.34,630.46C671.081,629.934 668.683,628.993 666.158,627.687ZM698.057,622.69L695.85,618.204C700.281,616.024 705.008,613.21 709.712,609.585L712.764,613.545C707.774,617.392 702.758,620.377 698.057,622.69ZM725.332,601.63L721.542,598.37C724.885,594.482 728.058,590.045 730.925,584.983L735.276,587.448C732.237,592.811 728.875,597.511 725.332,601.63ZM742.451,571.677L737.742,569.996C739.492,565.093 740.98,559.765 742.144,553.979L747.046,554.964C745.832,561.003 744.277,566.561 742.451,571.677ZM749.422,537.79L744.438,537.387C744.658,534.666 744.814,531.864 744.902,528.978L744.902,528.974C744.983,526.379 745.013,523.709 744.991,520.963L749.991,520.923C750.014,523.736 749.983,526.472 749.9,529.13C749.809,532.103 749.648,534.988 749.422,537.79ZM749.318,504.523L744.33,504.879C743.964,499.742 743.444,494.38 742.768,488.786L747.732,488.186C748.419,493.865 748.945,499.308 749.318,504.523ZM745.433,471.932L740.497,472.726C739.667,467.566 738.721,462.232 737.653,456.72L742.562,455.77C743.64,461.336 744.596,466.722 745.433,471.932ZM739.222,439.698L734.34,440.779C733.2,435.629 731.965,430.338 730.633,424.903L735.489,423.712C736.83,429.185 738.074,434.513 739.222,439.698ZM731.423,407.808L726.591,409.092C725.227,403.962 723.784,398.714 722.26,393.345L727.07,391.979C728.602,397.376 730.053,402.652 731.423,407.808ZM722.468,376.222L717.679,377.658C716.147,372.551 714.546,367.342 712.876,362.029L717.646,360.53C719.323,365.864 720.93,371.094 722.468,376.222ZM712.629,344.899L707.877,346.455C706.213,341.37 704.489,336.196 702.704,330.931L707.439,329.325C709.23,334.607 710.96,339.798 712.629,344.899ZM702.092,313.805L697.372,315.456C695.601,310.392 693.776,305.249 691.898,300.025L696.602,298.333C698.486,303.571 700.316,308.728 702.092,313.805ZM690.985,282.909L686.293,284.639C684.434,279.595 682.526,274.48 680.57,269.292L685.248,267.528C687.209,272.727 689.121,277.854 690.985,282.909ZM679.404,252.187L674.737,253.983C672.803,248.958 670.826,243.867 668.804,238.711L673.459,236.885C675.484,242.052 677.466,247.152 679.404,252.187ZM667.421,221.62L662.777,223.472C661.772,220.953 660.757,218.418 659.732,215.868C658.74,213.406 657.574,211.254 656.312,209.374L660.463,206.587C661.904,208.734 663.238,211.19 664.37,214C665.397,216.555 666.414,219.095 667.421,221.62ZM648.372,195.132L645.785,199.411C642.353,197.336 639.808,196.245 639.257,195.763C639.251,195.757 639.245,195.752 639.239,195.747C635.418,192.37 633.409,188.941 632.112,185.515L636.787,183.744C637.835,186.51 639.465,189.274 642.55,192C643.037,192.426 645.338,193.298 648.372,195.132ZM631.044,168.094L627.07,171.129C625.638,169.254 623.487,167.469 620.217,165.695C618.739,164.894 617.027,163.98 615.105,162.978L617.416,158.544C619.365,159.56 621.102,160.488 622.6,161.3C626.652,163.498 629.269,165.771 631.044,168.094ZM602.351,151.135L600.251,155.673C595.61,153.525 590.509,151.291 585.079,149.109L586.943,144.47C592.458,146.685 597.638,148.954 602.351,151.135ZM571.189,138.671L569.609,143.414C564.49,141.71 559.213,140.138 553.862,138.792L555.082,133.943C560.555,135.32 565.953,136.927 571.189,138.671ZM538.633,130.611L537.892,135.556C532.502,134.749 527.123,134.257 521.842,134.179L521.916,129.18C527.416,129.261 533.018,129.77 538.633,130.611ZM505.271,130.749L506.981,135.448C503.09,136.863 498.175,139.892 492.918,142.904L490.433,138.565C495.972,135.392 501.171,132.241 505.271,130.749ZM475.373,145.935L477.007,150.661C473.582,151.845 470.256,152.53 467.17,152.53L459.49,152.53L459.49,147.53L467.17,147.53C469.745,147.53 472.515,146.923 475.373,145.935ZM444.129,147.53L444.129,152.53L428.768,152.53L428.768,147.53L444.129,147.53ZM413.407,147.53L413.407,152.53L398.046,152.53L398.046,147.53L413.407,147.53ZM382.685,147.53L382.685,152.53L367.324,152.53L367.324,147.53L382.685,147.53ZM351.964,147.53L351.964,152.53L336.603,152.53L336.603,147.53L351.964,147.53ZM321.242,147.53L321.242,152.53L305.881,152.53L305.881,147.53L321.242,147.53ZM290.52,147.53L290.52,152.53L282.84,152.53C279.794,152.53 276.515,151.863 273.137,150.707L274.756,145.976C277.572,146.94 280.301,147.53 282.84,147.53L290.52,147.53ZM259.904,138.755L257.423,143.096C252.262,140.147 247.409,137.16 243.501,135.63L245.325,130.974C249.412,132.575 254.505,135.67 259.904,138.755ZM228.973,129.17L229.005,134.17C223.807,134.203 218.511,134.643 213.197,135.396L212.496,130.445C218.034,129.661 223.556,129.205 228.973,129.17ZM196.269,133.607L197.454,138.464C192.185,139.75 186.98,141.261 181.921,142.909L180.372,138.155C185.55,136.468 190.876,134.923 196.269,133.607ZM164.818,143.768L166.653,148.419C161.323,150.522 156.29,152.688 151.672,154.79L149.6,150.24C154.291,148.104 159.404,145.904 164.818,143.768ZM134.715,157.444L136.996,161.893C134.206,163.323 131.781,164.613 129.784,165.695C127.252,167.069 125.384,168.456 124,169.892L120.399,166.424C122.079,164.679 124.326,162.968 127.4,161.3C129.425,160.203 131.885,158.895 134.715,157.444ZM113.735,182.256L118.506,183.752C117.247,187.768 115.251,191.787 110.771,195.747C110.765,195.752 110.759,195.757 110.753,195.763C110.234,196.217 108.023,197.216 104.944,198.987L102.451,194.652C105.078,193.142 107.018,192.387 107.46,192C111.098,188.785 112.713,185.517 113.735,182.256ZM89.724,206.326L93.852,209.148C92.531,211.081 91.31,213.307 90.278,215.868C89.252,218.418 88.237,220.952 87.232,223.472L82.588,221.619C83.595,219.095 84.612,216.555 85.64,214C86.818,211.075 88.215,208.534 89.724,206.326ZM76.548,236.884L81.202,238.71C79.18,243.867 77.202,248.957 75.267,253.982L70.601,252.186C72.539,247.151 74.521,242.051 76.548,236.884ZM64.755,267.526L69.433,269.29C67.477,274.478 65.569,279.593 63.709,284.636L59.018,282.907C60.882,277.852 62.794,272.725 64.755,267.526ZM53.399,298.331L58.104,300.023C56.225,305.247 54.4,310.39 52.629,315.453L47.909,313.802C49.685,308.725 51.515,303.569 53.399,298.331ZM42.562,329.323L47.297,330.929C45.512,336.194 43.788,341.368 42.123,346.452L37.371,344.897C39.041,339.796 40.771,334.605 42.562,329.323ZM32.355,360.528L37.125,362.027C35.455,367.34 33.855,372.55 32.323,377.657L27.534,376.221C29.072,371.093 30.679,365.863 32.355,360.528ZM22.933,391.978L27.743,393.343C26.219,398.712 24.776,403.961 23.414,409.091L18.581,407.807C19.951,402.651 21.401,397.375 22.933,391.978ZM14.516,423.712L19.373,424.902C18.041,430.337 16.806,435.628 15.666,440.778L10.784,439.698C11.932,434.512 13.175,429.184 14.516,423.712ZM7.444,455.77L12.353,456.721C11.286,462.233 10.339,467.567 9.509,472.726L4.573,471.933C5.41,466.723 6.366,461.337 7.444,455.77ZM2.272,488.186L7.236,488.787C6.559,494.381 6.039,499.744 5.671,504.881L0.683,504.524C1.057,499.309 1.585,493.865 2.272,488.186Z" style="fill:rgb(255,0,0);"/>
        <path d="M510.264,101.899L515.259,102.136C515.204,103.286 515.147,104.437 515.088,105.587C516.635,105.858 518.354,106.132 520.172,106.405L519.429,111.35C515.611,110.776 512.212,110.193 509.86,109.65C510.007,107.067 510.142,104.483 510.264,101.899ZM538.705,113.876L539.293,108.911C544.666,109.547 548.67,109.995 549.201,110.072L549.032,110.045L561.64,111.755L560.968,116.71L548.36,115C548.073,114.948 544.099,114.515 538.705,113.876ZM586.182,120.13L586.854,115.175C586.854,115.175 593.131,116.027 593.132,116.027C593.086,115.626 593.04,115.228 592.995,114.83L597.962,114.257C598.247,116.725 598.523,119.253 598.79,121.84L586.182,120.13ZM596.004,99.125L591.056,99.839C590.295,94.568 589.491,89.613 588.648,84.954L593.568,84.064C594.421,88.778 595.235,93.792 596.004,99.125ZM590.521,69.115L585.648,70.233C584.436,64.954 583.172,60.154 581.869,55.786L586.66,54.357C587.991,58.818 589.284,63.722 590.521,69.115ZM581.652,39.95L577.02,41.834C574.919,36.668 572.774,32.407 570.631,28.881L574.903,26.284C577.166,30.005 579.435,34.499 581.652,39.95ZM565.348,14.461L562.031,18.203C557.369,14.069 553.185,12.765 550.349,11.667L552.155,7.004C555.365,8.248 560.069,9.782 565.348,14.461ZM538.406,0.715L537.496,5.632C533.653,4.921 529.13,4.907 523.352,5.096L523.189,0.099C529.405,-0.104 534.271,-0.05 538.406,0.715ZM511.313,7.876L515.966,9.706C515.104,11.898 514.912,14.152 514.86,15.428C514.86,15.428 514.86,16.419 514.86,16.419C515.005,18.97 515.138,21.522 515.259,24.074L510.264,24.311C510.142,21.727 510.007,19.143 509.86,16.56L509.86,15.33C509.92,13.718 510.18,10.759 511.313,7.876ZM510.852,39.823L515.85,39.681C515.998,44.885 516.097,50.09 516.146,55.296L511.146,55.343C511.097,50.169 510.999,44.996 510.852,39.823ZM511.146,70.867L516.146,70.914C516.097,76.12 515.998,81.325 515.85,86.529L510.852,86.387C510.999,81.214 511.097,76.041 511.146,70.867Z" style="fill:rgb(255,0,0);"/>
        <path d="M152.089,114.208L157.056,114.782C157.01,115.179 156.965,115.577 156.919,115.976L163.188,115.125L163.86,120.08L151.26,121.79C151.527,119.203 151.804,116.676 152.089,114.208ZM189.06,116.66L188.388,111.705L200.988,109.995C198.381,110.349 196.494,112.662 196.671,115.287C196.679,115.4 196.69,115.512 196.705,115.622L189.06,116.66ZM196.718,115.621C196.704,115.502 196.693,115.382 196.687,115.261C196.548,112.605 198.513,110.305 201.159,110.027C201.159,110.027 205.201,109.603 210.766,108.953L211.346,113.919C205.747,114.574 201.68,115 201.68,115L201.66,114.95L196.718,115.621ZM230.636,111.404L229.893,106.46C231.713,106.186 233.434,105.911 234.982,105.64C234.923,104.488 234.866,103.337 234.811,102.186L239.806,101.949C239.928,104.533 240.063,107.117 240.21,109.7C237.859,110.245 234.457,110.83 230.636,111.404ZM239.218,86.437L234.22,86.579C234.072,81.375 233.973,76.17 233.924,70.964L238.924,70.917C238.973,76.091 239.071,81.264 239.218,86.437ZM238.924,55.393L233.924,55.346C233.973,50.14 234.072,44.935 234.22,39.731L239.218,39.873C239.071,45.046 238.973,50.219 238.924,55.393ZM239.806,24.361L234.811,24.124C234.932,21.572 235.065,19.02 235.21,16.469C235.21,16.469 235.21,15.415 235.209,15.393C235.163,14.126 234.971,11.891 234.111,9.717L238.761,7.878C239.9,10.76 240.158,13.718 240.21,15.33L240.21,16.61C240.063,19.193 239.928,21.777 239.806,24.361ZM226.875,0.101L226.71,5.098C220.938,4.907 216.414,4.919 212.569,5.629L211.661,0.712C215.798,-0.052 220.665,-0.104 226.875,0.101ZM197.909,6.993L199.715,11.655C196.877,12.754 192.691,14.054 188.027,18.183L184.713,14.438C189.992,9.766 194.697,8.237 197.909,6.993ZM175.153,26.254L179.425,28.853C177.281,32.377 175.136,36.636 173.035,41.801L168.403,39.916C170.621,34.466 172.891,29.973 175.153,26.254ZM163.394,54.32L168.185,55.75C166.882,60.116 165.617,64.916 164.406,70.194L159.532,69.075C160.77,63.683 162.062,58.78 163.394,54.32ZM156.484,84.021L161.404,84.911C160.562,89.569 159.757,94.523 158.996,99.794L154.047,99.079C154.817,93.747 155.632,88.734 156.484,84.021Z" style="fill:rgb(255,0,0);"/>
        <path d="M489.53,279.54C489.53,273.633 491.491,268.171 494.809,263.747L498.809,266.747C496.121,270.331 494.53,274.755 494.53,279.54L489.53,279.54ZM525.107,254.118L523.603,258.886C521.448,258.206 519.15,257.84 516.765,257.84C514.38,257.84 512.083,258.206 509.927,258.886L508.423,254.118C511.052,253.288 513.856,252.84 516.765,252.84C519.674,252.84 522.478,253.288 525.107,254.118ZM544,279.54L539,279.54C539,274.754 537.409,270.331 534.721,266.747L538.721,263.747C542.039,268.171 544,273.633 544,279.54ZM525.107,304.962L523.603,300.194C528.102,298.774 531.979,295.988 534.721,292.333L538.721,295.333C535.363,299.809 530.617,303.223 525.107,304.962ZM494.809,295.333L498.809,292.333C501.551,295.988 505.428,298.774 509.927,300.194L508.423,304.962C502.913,303.223 498.166,299.809 494.809,295.333Z" style="fill:rgb(255,0,0);"/>
        <g transform="matrix(1,0,0,1,50.005,-50.53)">
            <path d="M489.53,279.54C489.53,273.633 491.491,268.171 494.809,263.747L498.809,266.747C496.121,270.331 494.53,274.755 494.53,279.54L489.53,279.54ZM525.107,254.118L523.603,258.886C521.448,258.206 519.15,257.84 516.765,257.84C514.38,257.84 512.083,258.206 509.927,258.886L508.423,254.118C511.052,253.288 513.856,252.84 516.765,252.84C519.674,252.84 522.478,253.288 525.107,254.118ZM544,279.54L539,279.54C539,274.754 537.409,270.331 534.721,266.747L538.721,263.747C542.039,268.171 544,273.633 544,279.54ZM525.107,304.962L523.603,300.194C528.102,298.774 531.979,295.988 534.721,292.333L538.721,295.333C535.363,299.809 530.617,303.223 525.107,304.962ZM494.809,295.333L498.809,292.333C501.551,295.988 505.428,298.774 509.927,300.194L508.423,304.962C502.913,303.223 498.166,299.809 494.809,295.333Z" style="fill:rgb(255,0,0);"/>
        </g>
        <g transform="matrix(1,0,0,1,101.07,-8.52651e-14)">
            <path d="M489.53,279.54C489.53,273.633 491.491,268.171 494.809,263.747L498.809,266.747C496.121,270.331 494.53,274.755 494.53,279.54L489.53,279.54ZM525.107,254.118L523.603,258.886C521.448,258.206 519.15,257.84 516.765,257.84C514.38,257.84 512.083,258.206 509.927,258.886L508.423,254.118C511.052,253.288 513.856,252.84 516.765,252.84C519.674,252.84 522.478,253.288 525.107,254.118ZM544,279.54L539,279.54C539,274.754 537.409,270.331 534.721,266.747L538.721,263.747C542.039,268.171 544,273.633 544,279.54ZM525.107,304.962L523.603,300.194C528.102,298.774 531.979,295.988 534.721,292.333L538.721,295.333C535.363,299.809 530.617,303.223 525.107,304.962ZM494.809,295.333L498.809,292.333C501.551,295.988 505.428,298.774 509.927,300.194L508.423,304.962C502.913,303.223 498.166,299.809 494.809,295.333Z" style="fill:rgb(255,0,0);"/>
        </g>
        <g transform="matrix(1,0,0,1,50.005,50.54)">
            <path d="M489.53,279.54C489.53,273.633 491.491,268.171 494.809,263.747L498.809,266.747C496.121,270.331 494.53,274.754 494.53,279.54L489.53,279.54ZM525.107,254.118L523.603,258.886C521.448,258.206 519.15,257.84 516.765,257.84C514.38,257.84 512.083,258.206 509.927,258.886L508.423,254.118C511.052,253.288 513.856,252.84 516.765,252.84C519.674,252.84 522.478,253.288 525.107,254.118ZM544,279.54L539,279.54C539,274.754 537.409,270.331 534.721,266.747L538.721,263.747C542.039,268.171 544,273.633 544,279.54ZM525.107,304.962L523.603,300.194C528.102,298.774 531.979,295.988 534.721,292.333L538.721,295.333C535.363,299.809 530.617,303.223 525.107,304.962ZM494.809,295.333L498.809,292.333C501.551,295.988 505.428,298.774 509.927,300.194L508.423,304.962C502.913,303.223 498.167,299.809 494.809,295.333Z" style="fill:rgb(255,0,0);"/>
        </g>
        <path d="M264.665,425.825L259.665,425.825L259.665,419.36L253.349,419.36L253.349,414.36L262.165,414.36C263.546,414.36 264.665,415.479 264.665,416.86L264.665,425.825ZM235.716,414.36L235.716,419.36L226.9,419.36C225.736,419.36 224.726,418.556 224.464,417.422C223.857,414.791 223.391,412.148 223.074,409.491L228.039,408.899C228.257,410.726 228.55,412.546 228.917,414.36L235.716,414.36ZM228.015,393.953L223.05,393.367C223.361,390.732 223.831,388.083 224.469,385.418C224.738,384.293 225.743,383.5 226.9,383.5L235.716,383.5L235.716,388.5C235.716,388.5 228.903,388.5 228.903,388.5C228.524,390.325 228.229,392.143 228.015,393.953ZM253.349,388.5L253.349,383.5L259.665,383.5L259.665,377.065L264.665,377.065L264.665,386C264.665,387.381 263.546,388.5 262.165,388.5L253.349,388.5ZM264.665,359.195L259.665,359.195L259.665,350.26C259.665,349.036 260.552,347.991 261.76,347.793C264.399,347.36 267.026,347.028 269.639,346.802L270.071,351.783C268.275,351.939 266.473,352.146 264.665,352.405L264.665,359.195ZM285.129,351.742L285.553,346.76C288.205,346.986 290.842,347.331 293.464,347.799C294.657,348.012 295.525,349.049 295.525,350.26L295.525,359.195L290.525,359.195C290.525,359.195 290.525,352.38 290.525,352.38C288.734,352.108 286.935,351.896 285.129,351.742ZM290.525,377.065L295.525,377.065L295.525,383.5L302.109,383.5L302.109,388.5L293.025,388.5C291.644,388.5 290.525,387.381 290.525,386L290.525,377.065ZM320.276,388.5L320.276,383.5L329.36,383.5C330.58,383.5 331.621,384.38 331.825,385.582C332.273,388.227 332.608,390.857 332.834,393.473L327.852,393.902C327.698,392.108 327.489,390.308 327.224,388.5L320.276,388.5ZM327.862,408.96L332.844,409.387C332.617,412.034 332.276,414.667 331.823,417.286C331.616,418.485 330.576,419.36 329.36,419.36L320.276,419.36L320.276,414.36C320.276,414.36 327.23,414.36 327.23,414.36C327.496,412.567 327.707,410.767 327.862,408.96ZM302.109,414.36L302.109,419.36L295.525,419.36L295.525,425.825L290.525,425.825L290.525,416.86C290.525,415.479 291.644,414.36 293.025,414.36L302.109,414.36ZM290.525,443.755L295.525,443.755L295.525,452.72C295.525,453.902 294.697,454.923 293.54,455.166C290.913,455.719 288.274,456.143 285.62,456.43L285.083,451.458C286.904,451.262 288.718,450.996 290.525,450.665L290.525,443.755ZM270.102,451.477L269.568,456.448C266.938,456.166 264.294,455.74 261.635,455.163C260.485,454.914 259.665,453.896 259.665,452.72L259.665,443.755L264.665,443.755C264.665,443.755 264.665,450.675 264.665,450.675C266.485,451.017 268.297,451.283 270.102,451.477Z" style="fill:rgb(255,0,0);"/>
        <g id="Right_Stick">
            <path d="M407.265,413.841C406.084,409.066 405.415,404.098 405.321,398.999L410.321,398.908C410.407,403.625 411.026,408.222 412.119,412.64L407.265,413.841ZM411.389,369.875L415.936,371.957C414.028,376.124 412.565,380.532 411.61,385.116L406.715,384.096C407.747,379.142 409.328,374.38 411.389,369.875ZM429.376,346.165L432.611,349.977C429.075,352.978 425.87,356.36 423.063,360.057L419.081,357.033C422.108,353.047 425.563,349.4 429.376,346.165ZM455.719,332.327L457.011,337.157C452.495,338.365 448.173,340.07 444.108,342.208L441.78,337.783C446.171,335.473 450.84,333.631 455.719,332.327ZM485.449,331.222L484.521,336.135C480.786,335.429 476.938,335.06 473.01,335.06C472.239,335.06 471.471,335.074 470.706,335.102L470.522,330.106C471.348,330.075 472.177,330.06 473.01,330.06C477.254,330.06 481.413,330.459 485.449,331.222ZM512.735,343.085L509.785,347.121C506.06,344.399 502.029,342.074 497.757,340.214L499.754,335.63C504.364,337.638 508.715,340.146 512.735,343.085ZM532.395,365.43L528.013,367.839C525.772,363.763 523.09,359.956 520.035,356.485L523.788,353.181C527.084,356.926 529.977,361.033 532.395,365.43ZM540.607,394.024L535.614,394.301C535.353,389.599 534.564,385.028 533.304,380.647L538.109,379.265C539.471,384 540.324,388.941 540.607,394.024ZM535.607,423.35L530.988,421.436C532.741,417.207 534.042,412.751 534.829,408.129L539.758,408.969C538.907,413.964 537.501,418.78 535.607,423.35ZM518.488,447.695L515.118,444.001C518.542,440.877 521.624,437.383 524.297,433.585L528.386,436.463C525.503,440.558 522.18,444.326 518.488,447.695ZM492.672,462.494L491.199,457.716C495.663,456.34 499.92,454.475 503.909,452.186L506.398,456.522C502.091,458.995 497.492,461.009 492.672,462.494ZM458.125,463.789L459.236,458.914C463.67,459.925 468.277,460.459 472.998,460.46C474.542,460.459 476.073,460.4 477.591,460.287L477.963,465.273C476.324,465.395 474.668,465.459 473,465.46C467.897,465.459 462.918,464.881 458.125,463.789ZM431.295,450.924L434.39,446.998C438.017,449.857 441.962,452.327 446.159,454.343L443.994,458.85C439.465,456.675 435.209,454.01 431.295,450.924ZM412.462,427.879L416.929,425.633C419.02,429.791 421.561,433.692 424.486,437.269L420.615,440.434C417.46,436.574 414.718,432.366 412.462,427.879Z" style="fill:rgb(255,0,0);"/>
        </g>
    </g>
    <path d="M119.75,299.856C118.57,295.081 117.902,290.112 117.811,285.014L122.81,284.924C122.895,289.641 123.512,294.238 124.604,298.657L119.75,299.856ZM123.891,255.893L128.436,257.976C126.526,262.143 125.062,266.549 124.105,271.133L119.21,270.111C120.244,265.158 121.827,260.396 123.891,255.893ZM141.889,232.19L145.122,236.005C141.584,239.003 138.378,242.383 135.569,246.079L131.588,243.054C134.617,239.069 138.074,235.424 141.889,232.19ZM168.239,218.367L169.528,223.198C165.011,224.403 160.688,226.105 156.623,228.241L154.297,223.815C158.689,221.507 163.359,219.668 168.239,218.367ZM197.97,217.279L197.038,222.192C193.291,221.482 189.431,221.11 185.49,221.11C184.732,221.11 183.977,221.124 183.224,221.151L183.043,216.154C183.855,216.125 184.671,216.11 185.49,216.11C189.748,216.11 193.92,216.512 197.97,217.279ZM225.248,229.161L222.294,233.196C218.571,230.47 214.542,228.143 210.272,226.28L212.272,221.697C216.881,223.708 221.229,226.22 225.248,229.161ZM244.891,251.52L240.508,253.926C238.269,249.848 235.591,246.039 232.538,242.566L236.294,239.265C239.587,243.012 242.476,247.121 244.891,251.52ZM253.08,280.121L248.087,280.394C247.83,275.691 247.044,271.119 245.788,266.738L250.594,265.36C251.952,270.096 252.802,275.038 253.08,280.121ZM248.052,309.442L243.434,307.524C245.191,303.296 246.497,298.841 247.289,294.22L252.217,295.065C251.361,300.059 249.95,304.873 248.052,309.442ZM230.909,333.77L227.542,330.073C230.969,326.952 234.054,323.461 236.731,319.665L240.817,322.547C237.93,326.64 234.604,330.404 230.909,333.77ZM205.077,348.544L203.61,343.764C208.075,342.393 212.334,340.532 216.325,338.247L218.81,342.585C214.5,345.054 209.9,347.063 205.077,348.544ZM170.595,349.816L171.708,344.942C176.141,345.953 180.747,346.488 185.468,346.49C186.991,346.489 188.502,346.432 189.999,346.321L190.366,351.308C188.749,351.427 187.116,351.489 185.47,351.49C180.367,351.488 175.388,350.91 170.595,349.816ZM143.768,336.946L146.864,333.021C150.491,335.88 154.435,338.352 158.631,340.369L156.466,344.875C151.937,342.699 147.681,340.033 143.768,336.946ZM124.941,313.896L129.409,311.651C131.499,315.81 134.039,319.711 136.963,323.289L133.091,326.453C129.936,322.593 127.196,318.384 124.941,313.896Z" style="fill:rgb(255,0,0);"/>
    <g>
        <path d="M312.726,296.661C307.105,293.406 303.32,287.327 303.32,280.37L308.32,280.37C308.32,285.479 311.102,289.943 315.231,292.333L312.726,296.661ZM331.534,264.079L329.029,268.407C326.999,267.231 324.642,266.56 322.13,266.56C319.618,266.56 317.261,267.231 315.231,268.407L312.726,264.079C315.493,262.477 318.705,261.56 322.13,261.56C325.555,261.56 328.767,262.477 331.534,264.079ZM331.534,296.661L329.029,292.333C333.158,289.943 335.94,285.479 335.94,280.37L340.94,280.37C340.94,287.327 337.155,293.406 331.534,296.661Z" style="fill:rgb(255,0,0);"/>
        <g transform="matrix(1,0,0,1,107.98,7.97448e-06)">
            <path d="M312.726,296.661C307.105,293.406 303.32,287.327 303.32,280.37L308.32,280.37C308.32,285.479 311.102,289.943 315.231,292.333L312.726,296.661ZM331.534,264.079L329.029,268.407C326.999,267.231 324.642,266.56 322.13,266.56C319.618,266.56 317.261,267.231 315.231,268.407L312.726,264.079C315.493,262.477 318.705,261.56 322.13,261.56C325.555,261.56 328.767,262.477 331.534,264.079ZM331.534,296.661L329.029,292.333C333.158,289.943 335.94,285.479 335.94,280.37L340.94,280.37C340.94,287.327 337.155,293.406 331.534,296.661Z" style="fill:rgb(255,0,0);"/>
        </g>
        <g transform="matrix(0.582706,0,0,0.582706,156.725,12.7336)">
            <g transform="matrix(0.271578,0.271578,-0.329933,0.329933,387.117,104.318)">
                <path d="M317,309.801L317,286.333C317,264.073 338.956,246 366,246C393.044,246 415,264.073 415,286.333L415,309.801" style="fill:none;stroke:rgb(255,0,0);stroke-width:20.08px;"/>
            </g>
            <g transform="matrix(-0.271578,-0.271578,0.329933,-0.329933,362.883,526.142)">
                <path d="M317,309.801L317,286.333C317,264.073 338.956,246 366,246C393.044,246 415,264.073 415,286.333L415,309.801" style="fill:none;stroke:rgb(255,0,0);stroke-width:20.08px;"/>
            </g>
            <g transform="matrix(0.640447,0.640447,-0.489534,0.489534,292.688,-83.4336)">
                <path d="M332,323.115L419,323.115" style="fill:none;stroke:rgb(255,0,0);stroke-width:10.64px;"/>
            </g>
        </g>
    </g>
</svg>
